<svg width="20" height="20" viewBox="0 0 135 135" fill="none" xmlns="http://www.w3.org/2000/svg">
<path d="M19.0781 34.899C22.5822 32.4499 27.8644 32.9196 31.0106 35.5178L27.4021 30.2729C24.4982 26.1314 25.5383 21.6507 29.6835 18.743C33.8288 15.8466 45.5749 23.6338 45.5749 23.6338C42.6449 19.4513 43.1928 14.1504 47.3754 11.2167C51.5579 8.29417 57.3284 9.30439 60.2584 13.4944L99.1014 68.3666L94.151 116.361L52.8365 101.294L16.8005 47.8641C13.8444 43.6555 14.8658 37.8514 19.0781 34.899Z" fill="#EF9645"/>
<path d="M11.004 65.4256C11.004 65.4256 6.78424 59.2748 12.9387 55.0587C19.0858 50.8427 23.3018 56.9897 23.3018 56.9897L42.8762 85.5367C43.5509 84.4109 44.289 83.3001 45.1128 82.2041L17.9451 42.5895C17.9451 42.5895 13.729 36.4424 19.8798 32.2264C26.0268 28.0103 30.2429 34.1573 30.2429 34.1573L55.7965 71.4235C56.7471 70.6481 57.72 69.869 58.7228 69.1049L29.0985 25.8967C29.0985 25.8967 24.8824 19.7496 31.0332 15.5335C37.1802 11.3175 41.3963 17.4645 41.3963 17.4645L71.0206 60.6653C72.1091 59.998 73.1864 59.4202 74.2675 58.8088L46.5778 18.43C46.5778 18.43 42.3618 12.283 48.5088 8.06689C54.6558 3.85082 58.8719 9.99786 58.8719 9.99786L88.1496 52.6954L92.6005 59.1891C74.1556 71.841 72.3999 95.6426 82.9382 111.012C85.0443 114.087 88.1197 111.981 88.1197 111.981C75.4715 93.5327 79.3335 72.8028 97.782 60.1546L92.3433 32.9346C92.3433 32.9346 90.3116 25.7625 97.4801 23.7271C104.652 21.6955 106.688 28.8677 106.688 28.8677L112.969 47.5213C115.459 54.9171 118.109 62.2868 121.617 69.2577C131.522 88.9401 125.606 113.402 106.93 126.214C86.5578 140.182 58.7079 134.989 44.7363 114.621L11.004 65.4256Z" fill="#FFDC5D"/>
<path d="M45.6909 120.246C30.7799 120.246 15.7124 105.178 15.7124 90.2672C15.7124 88.2057 14.2027 86.5394 12.1413 86.5394C10.0798 86.5394 8.25696 88.2057 8.25696 90.2672C8.25696 112.634 23.3245 127.701 45.6909 127.701C47.7523 127.701 49.4186 125.878 49.4186 123.817C49.4186 121.755 47.7523 120.246 45.6909 120.246Z" fill="#5DADEC"/>
<path d="M27.0521 127.545C15.8689 127.545 8.41342 120.089 8.41342 108.906C8.41342 106.844 6.74712 105.178 4.68568 105.178C2.62425 105.178 0.957947 106.844 0.957947 108.906C0.957947 123.817 12.1412 135 27.0521 135C29.1135 135 30.7798 133.334 30.7798 131.272C30.7798 129.211 29.1135 127.545 27.0521 127.545ZM90.4236 8.25696C88.3659 8.25696 86.6959 9.92698 86.6959 11.9847C86.6959 14.0424 88.3659 15.7124 90.4236 15.7124C105.335 15.7124 120.246 29.0913 120.246 45.5343C120.246 47.592 121.916 49.2621 123.973 49.2621C126.031 49.2621 127.701 47.592 127.701 45.5343C127.701 24.9796 112.79 8.25696 90.4236 8.25696Z" fill="#5DADEC"/>
<path d="M109.062 0.958008C107.005 0.958008 105.335 2.47147 105.335 4.52918C105.335 6.58689 107.005 8.41348 109.062 8.41348C120.246 8.41348 127.545 16.7077 127.545 26.8956C127.545 28.9533 129.367 30.6233 131.429 30.6233C133.49 30.6233 135 28.9533 135 26.8956C135 12.5923 123.973 0.958008 109.062 0.958008Z" fill="#5DADEC"/>
</svg>
